<svg xmlns="http://www.w3.org/2000/svg" width="24" height="24" fill="none" viewBox="0 0 24 24" id="youtube"><path fill="#EE4D4D" d="M5 4.75C2.92893 4.75 1.25 6.42893 1.25 8.5V15.5C1.25 17.5711 2.92893 19.25 5 19.25H19C21.0711 19.25 22.75 17.5711 22.75 15.5V8.5C22.75 6.42893 21.0711 4.75 19 4.75H5Z"></path><path fill="#ECEFF1" d="M10.4301 7.88558C10.201 7.72521 9.90169 7.70562 9.65364 7.83477C9.40559 7.96392 9.25 8.22035 9.25 8.5V15.5C9.25 15.7797 9.40559 16.0361 9.65364 16.1652C9.90169 16.2944 10.201 16.2748 10.4301 16.1144L15.4301 12.6144C15.6306 12.4741 15.75 12.2447 15.75 12C15.75 11.7553 15.6306 11.5259 15.4301 11.3856L10.4301 7.88558Z"></path></svg>